<?xml version="1.0" encoding="UTF-8"?>
<svg id="Layer_2" data-name="Layer 2" xmlns="http://www.w3.org/2000/svg" viewBox="0 0 336.05 102.85">
  <defs>
    <style>
      .cls-1 {
        fill: #69be28;
      }

      .cls-2 {
        fill: #024;
      }

      .cls-3 {
        fill: #a5acaf;
      }
    </style>
  </defs>
  <g id="Layer_1-2" data-name="Layer 1">
    <polygon class="cls-3" points="63.69 36.51 31.43 59.42 31.43 102.85 69.79 102.85 69.79 71.21 57.61 71.21 57.61 92.18 43.62 92.18 43.62 64.5 63.7 50.25 83.78 64.5 83.78 102.85 95.97 102.85 95.97 59.42 63.69 36.51 63.69 36.51"/>
    <path class="cls-2" d="M85.23,21.22l-10.02,7.11,34.88,24.18v50.34h12.18V47.51l-37.04-26.29h0Zm19.66-13.98l-9.67,6.87,41.02,27.85v60.89h12.19V36.7L104.89,7.24h0Z"/>
    <polygon class="cls-1" points="31.43 59.42 104.95 7.13 93.95 0 32.99 42.8 12.73 26.88 0 35.84 31.43 59.42"/>
    <g>
      <path class="cls-2" d="M165.16,83.92v16.28h6.35v2.48h-9.42v-18.77h3.08Z"/>
      <path class="cls-2" d="M195.24,86.4h-7.29v5.51h6.48v2.51h-6.48v5.75h7.29v2.51h-10.37v-18.8h10.37v2.51Z"/>
      <path class="cls-2" d="M225.23,83.89v18.8h-3.08l-9.26-14.01v14.01h-3.08v-18.8h3.08l9.26,13.99v-13.99h3.08Z"/>
      <path class="cls-2" d="M256.17,93.37c0,5.78-3.94,9.32-9.96,9.32h-6.13v-18.77h6.13c6.02,0,9.96,3.65,9.96,9.45Zm-9.96,6.8c4.43,0,6.81-2.54,6.81-6.8s-2.38-6.94-6.81-6.94h-3.05v13.74h3.05Z"/>
      <path class="cls-2" d="M270.01,83.92h3.08v18.77h-3.08v-18.77Z"/>
      <path class="cls-2" d="M303.36,83.89v18.8h-3.08l-9.26-14.01v14.01h-3.08v-18.8h3.08l9.26,13.99v-13.99h3.08Z"/>
      <path class="cls-2" d="M335.48,89.32h-3.7c-1-1.89-2.78-2.84-5.02-2.84-3.73,0-6.43,2.65-6.43,6.78s2.7,6.81,6.43,6.81c3.4,0,5.54-2.05,5.99-5.21h-7.05v-2.46h10.34v2.4c-.57,4.35-4.24,8.05-9.29,8.05s-9.59-3.94-9.59-9.59,4.29-9.59,9.59-9.59c3.92,0,7.29,1.97,8.72,5.64Z"/>
    </g>
    <g>
      <path class="cls-2" d="M162.09,16.43h5.55v24.71h2.08V16.43h5.55v56.33h-5.55v-26.18h-2.08v26.18h-5.55V16.43Z"/>
      <path class="cls-2" d="M181.72,53.61v-18.03c0-15.62,1.35-19.54,6.59-19.54s6.59,3.92,6.59,19.54v18.03c0,15.62-1.35,19.54-6.59,19.54s-6.59-3.92-6.59-19.54Zm7.63-.51v-17.02c0-14.1-.15-14.61-1.04-14.61s-1.04,.5-1.04,14.61v17.02c0,14.1,.15,14.61,1.04,14.61s1.04-.51,1.04-14.61Z"/>
      <path class="cls-2" d="M210.55,51.67h.08c.04-1.51,.15-3.18,.31-4.51l3.28-30.73h5.63v56.33h-4.47v-24.94c0-.93,0-3.38,.04-4.51h-.08c-.12,1.48-.35,3.57-.46,4.51l-2.58,24.94h-3.39l-2.58-24.94c-.12-.93-.35-3.03-.46-4.51h-.08c.04,1.13,.04,3.57,.04,4.51v24.94h-4.47V16.43h6.01l2.89,30.73c.12,1.32,.27,2.99,.31,4.51Z"/>
      <path class="cls-2" d="M226.48,16.43h10.21v5.44h-4.66v19.27h4.66v5.44h-4.66v20.74h4.66v5.44h-10.21V16.43Z"/>
      <path class="cls-2" d="M267.4,72.76h-5.55l-1.7-20.63c-.23-3.11-.62-4.16-1.5-4.16h-.04v24.79h-5.55V16.43h6.24c4.62,0,6.94,2.72,6.94,12.98v4.74c0,6.02-.81,9.71-2.39,11.77v.04c1,1.2,1.46,3.03,1.7,6.14l1.85,20.67Zm-7.94-30.46c.73,0,1.23-1.55,1.23-8.86v-3.19c0-7.3-.5-8.39-1.23-8.39h-.85v20.43h.85Z"/>
      <path class="cls-2" d="M272.89,16.43h5.55v56.33h-5.55V16.43Z"/>
      <path class="cls-2" d="M293.71,70.63c-.39,1.48-1.89,2.53-3.58,2.53-4.12,0-5.24-4.08-5.24-19.54v-18.03c0-15.62,1.35-19.54,6.59-19.54,4.62,0,6.09,4.23,5.82,16.08l-5.05,.31c.23-10.45-.15-10.96-.77-10.96-.89,0-1.04,.5-1.04,14.61v17.02c0,14.1,.15,14.61,1.04,14.61,.81,0,1-.51,1-11.42v-4.08h-1.08v-5.28h6.63v25.83h-4.24v-2.14h-.08Z"/>
      <path class="cls-2" d="M304.28,16.43h5.55v24.71h2.08V16.43h5.55v56.33h-5.55v-26.18h-2.08v26.18h-5.55V16.43Z"/>
      <path class="cls-2" d="M326.84,21.87h-3.7v-5.44h12.91v5.44h-3.66v50.89h-5.55V21.87Z"/>
    </g>
  </g>
</svg>